<?xml version="1.0" encoding="UTF-8" standalone="no"?>
<!-- Created with Inkscape (http://www.inkscape.org/) -->

<svg
   version="1.1"
   id="svg1"
   width="131"
   height="131"
   viewBox="0 0 131 131"
   sodipodi:docname="logo.svg"
   inkscape:version="1.4 (86a8ad7, 2024-10-11)"
   inkscape:export-filename="logo.png"
   inkscape:export-xdpi="96"
   inkscape:export-ydpi="96"
   xmlns:inkscape="http://www.inkscape.org/namespaces/inkscape"
   xmlns:sodipodi="http://sodipodi.sourceforge.net/DTD/sodipodi-0.dtd"
   xmlns="http://www.w3.org/2000/svg"
   xmlns:svg="http://www.w3.org/2000/svg">
  <defs
     id="defs1">
    <inkscape:path-effect
       effect="fillet_chamfer"
       id="path-effect3"
       is_visible="true"
       lpeversion="1"
       nodesatellites_param="F,0,0,1,0,0,0,1 @ F,0,0,1,0,0,0,1 @ F,0,0,1,0,0,0,1 @ F,0,0,1,0,0,0,1 @ F,0,0,1,0,0,0,1 @ F,0,0,1,0,0,0,1 @ F,0,0,1,0,0,0,1 @ F,0,0,1,0,0,0,1 @ F,0,0,1,0,0,0,1 @ F,0,0,1,0,0,0,1 @ F,0,0,1,0,0,0,1 @ F,0,0,1,0,0,0,1 @ F,0,0,1,0,0,0,1 @ F,0,0,1,0,0,0,1 @ F,0,0,1,0,0,0,1 @ F,0,0,1,0,0,0,1 @ F,0,0,1,0,0,0,1 @ F,0,0,1,0,0,0,1 @ F,0,0,1,0,0,0,1 @ F,0,0,1,0,0,0,1 @ F,0,0,1,0,0,0,1 @ F,0,0,1,0,0,0,1 | F,0,0,1,0,0,0,1 @ F,0,0,1,0,0,0,1 @ F,0,0,1,0,0,0,1 @ F,0,0,1,0,0,0,1 @ F,0,0,1,0,0,0,1 @ F,0,0,1,0,0,0,1 @ F,0,0,1,0,0,0,1 @ F,0,0,1,0,0,0,1 @ F,0,0,1,0,0,0,1 @ F,0,0,1,0,0,0,1 @ F,0,0,1,0,0,0,1 | F,0,0,1,0,0,0,1 @ F,0,0,1,0,0,0,1 @ F,0,0,1,0,0,0,1 | F,0,0,1,0,0,0,1 @ F,0,0,1,0,0,0,1 @ F,0,0,1,0,0,0,1 @ F,0,0,1,0,0,0,1 @ F,0,0,1,0,0,0,1 | F,0,0,1,0,0,0,1 @ F,0,0,1,0,0,0,1 @ F,0,0,1,0,0,0,1 @ F,0,0,1,0,0,0,1 @ F,0,0,1,0,0,0,1 @ F,0,0,1,0,0,0,1 @ F,0,0,1,0,0,0,1 @ F,0,0,1,0,0,0,1 @ F,0,0,1,0,0,0,1 @ F,0,0,1,0,0,0,1 | F,0,0,1,0,0,0,1 @ F,0,0,1,0,0,0,1 @ F,0,0,1,0,0,0,1 @ F,0,0,1,0,0,0,1 @ F,0,0,1,0,0,0,1 | F,0,0,1,0,0,0,1 @ F,0,0,1,0,0,0,1 @ F,0,0,1,0,0,0,1 @ F,0,0,1,0,0,0,1 @ F,0,0,1,0,0,0,1 @ F,0,0,1,0,0,0,1 @ F,0,0,1,0,0,0,1 @ F,0,0,1,0,0,0,1 @ F,0,0,1,0,0,0,1 @ F,0,0,1,0,0,0,1 @ F,0,0,1,0,0,0,1 @ F,0,0,1,0,0,0,1 @ F,0,0,1,0,0,0,1 @ F,0,0,1,0,0,0,1 @ F,0,0,1,0,0,0,1 @ F,0,0,1,0,0,0,1 @ F,0,0,1,0,0,0,1 @ F,0,0,1,0,0,0,1 @ F,0,0,1,0,0,0,1 @ F,0,0,1,0,0,0,1 @ F,0,0,1,0,0,0,1 @ F,0,0,1,0,0,0,1 @ F,0,0,1,0,0,0,1 @ F,0,0,1,0,0,0,1 @ F,0,0,1,0,0,0,1 @ F,0,0,1,0,0,0,1 @ F,0,0,1,0,0,0,1 @ F,0,0,1,0,0,0,1 @ F,0,0,1,0,0,0,1 @ F,0,0,1,0,0,0,1 @ F,0,0,1,0,0,0,1 @ F,0,0,1,0,0,0,1 @ F,0,0,1,0,0,0,1 @ F,0,0,1,0,0,0,1 @ F,0,0,1,0,0,0,1 @ F,0,0,1,0,0,0,1 @ F,0,0,1,0,0,0,1 @ F,0,0,1,0,0,0,1 @ F,0,0,1,0,0,0,1 | F,0,0,1,0,0,0,1 @ F,0,0,1,0,0,0,1 @ F,0,0,1,0,0,0,1 @ F,0,0,1,0,0,0,1 @ F,0,0,1,0,0,0,1 @ F,0,0,1,0,0,0,1 @ F,0,0,1,0,0,0,1 | F,0,0,1,0,0,0,1 @ F,0,0,1,0,0,0,1 @ F,0,0,1,0,0,0,1 @ F,0,0,1,0,0,0,1 @ F,0,0,1,0,0,0,1 @ F,0,0,1,0,0,0,1 | F,0,0,1,0,0,0,1 @ F,0,0,1,0,0,0,1 @ F,0,0,1,0,0,0,1 @ F,0,0,1,0,0,0,1 | F,0,0,1,0,0,0,1 @ F,0,0,1,0,0,0,1 @ F,0,0,1,0,0,0,1 @ F,0,0,1,0,0,0,1 | F,0,0,1,0,0,0,1 @ F,0,0,1,0,0,0,1 @ F,0,0,1,0,0,0,1 @ F,0,0,1,0,0,0,1 @ F,0,0,1,0,0,0,1 @ F,0,0,1,0,0,0,1 @ F,0,0,1,0,0,0,1 @ F,0,0,1,0,0,0,1 @ F,0,0,1,0,0,0,1 @ F,0,0,1,0,0,0,1 | F,0,0,1,0,0,0,1 @ F,0,0,1,0,0,0,1 @ F,0,0,1,0,0,0,1 @ F,0,0,1,0,0,0,1 @ F,0,0,1,0,0,0,1 @ F,0,0,1,0,0,0,1 @ F,0,0,1,0,0,0,1 @ F,0,0,1,0,0,0,1"
       radius="0"
       unit="px"
       method="auto"
       mode="F"
       chamfer_steps="1"
       flexible="false"
       use_knot_distance="true"
       apply_no_radius="true"
       apply_with_radius="true"
       only_selected="false"
       hide_knots="false" />
    <clipPath
       clipPathUnits="userSpaceOnUse"
       id="clipPath6">
      <path
         style="fill:#ffffff;fill-opacity:1;stroke:#ffffff;stroke-width:0.3;stroke-linecap:round;stroke-linejoin:miter;stroke-dasharray:none;stroke-dashoffset:0;stroke-opacity:1;paint-order:normal"
         d="M 65.182971,127.65129 C 61.281609,116.52665 49.55485,105.75147 51.67875,120.58456 c -2.668862,-2.68344 -2.844087,-5.03608 -4.222962,-9.06974 -2.531423,-7.40523 -9.998166,-11.60986 -9.212111,-5.45279 -2.513508,-0.53896 -2.786055,-5.4207 -4.199955,-8.979777 -3.557798,-8.95572 -10.657775,-15.277661 -8.232995,1.77302 -6.152029,-5.89765 -5.656235,-27.711143 -3.980894,-38.025894 0.719626,-4.430595 2.874363,-11.267503 -1.808604,-6.087984 1.017765,-6.273649 4.439989,-11.604074 8.143783,-16.826411 1.823983,-2.571809 1.819324,-2.651666 -0.26254,-4.5 -12.30767,-10.927069 -4.231611,-24.9714458 11.494267,-18.679197 3.716511,1.487053 5.935118,2.362896 10.393533,0.642813 3.447471,-1.330055 10.662489,-1.818226 16.270808,0.402276 5.986638,-2.082474 11.995276,-1.675467 15.295358,-0.402276 4.458415,1.720083 5.053726,1.737053 8.770237,0.25 15.530325,-6.2140068 24.185875,4.812097 13.102545,16.691033 -2.17046,2.32627 -2.39792,3.06934 -1.37744,4.5 3.1252,4.38141 7.24902,10.644355 7.82991,17.809834 -4.74834,-6.434807 -1.10834,4.763192 -1.10834,13.164254 0,13.958291 1.15821,19.800662 -2.84759,30.592822 -0.77122,-13.415751 -10.316143,-1.40518 -15.948767,8.322467 -3.24157,5.59825 -5.522391,11.22399 -7.516173,11.57759 3.509958,-11.63301 -11.965372,-5.56293 -17.077849,9.36469 z"
         id="path6"
         sodipodi:nodetypes="ccscscscsssscsssccscscc" />
    </clipPath>
  </defs>
  <sodipodi:namedview
     id="namedview1"
     pagecolor="#505050"
     bordercolor="#eeeeee"
     borderopacity="1"
     inkscape:showpageshadow="0"
     inkscape:pageopacity="0"
     inkscape:pagecheckerboard="0"
     inkscape:deskcolor="#505050"
     inkscape:zoom="6.1603053"
     inkscape:cx="43.260843"
     inkscape:cy="82.54461"
     inkscape:window-width="1920"
     inkscape:window-height="1009"
     inkscape:window-x="1912"
     inkscape:window-y="-8"
     inkscape:window-maximized="1"
     inkscape:current-layer="g1"
     inkscape:export-bgcolor="#ffffff00" />
  <g
     inkscape:groupmode="layer"
     inkscape:label="Image"
     id="g1">
    <rect
       style="display:inline;fill:#ffffff;fill-opacity:1;stroke:#ffffff;stroke-width:0.3;stroke-linecap:round;stroke-linejoin:miter;stroke-dasharray:none;stroke-dashoffset:0;stroke-opacity:1;paint-order:normal"
       id="rect5"
       width="121.09789"
       height="125.15614"
       x="6.1685252"
       y="3.2465923"
       clip-path="url(#clipPath6)" />
    <path
       style="display:inline;fill:#000000;fill-opacity:1;stroke:#000000;stroke-width:0.3;stroke-linecap:round;stroke-linejoin:miter;stroke-dasharray:none;stroke-dashoffset:0;stroke-opacity:1;paint-order:normal"
       d="m 65.109616,127.61803 c -3.901362,-11.12464 -15.628121,-21.89982 -13.504221,-7.06673 -2.668862,-2.68344 -2.844087,-5.03608 -4.222962,-9.06974 -2.531423,-7.40523 -9.998166,-11.609858 -9.212111,-5.45279 -2.513508,-0.53896 -2.786055,-5.4207 -4.199955,-8.979781 -3.557798,-8.955712 -10.657775,-15.27766 -8.232995,1.773023 -6.152029,-5.897644 -5.656235,-27.71114 -3.980894,-38.025891 0.719626,-4.430595 2.874363,-11.267503 -1.808604,-6.087984 1.017765,-6.273649 4.439989,-11.604074 8.143783,-16.826411 1.823983,-2.571809 1.819324,-2.651666 -0.26254,-4.5 -12.30767,-10.927069 -4.231611,-24.9714453 11.494267,-18.679197 3.716511,1.487053 5.935118,2.362896 10.393533,0.642813 3.447471,-1.330055 10.662489,-1.818226 16.270808,0.402276 5.986638,-2.082474 11.995276,-1.675467 15.295358,-0.402276 4.458415,1.720083 5.053726,1.737053 8.770237,0.25 15.53033,-6.2140062 24.18588,4.812097 13.10255,16.691033 -2.17046,2.32627 -2.39792,3.06934 -1.37744,4.5 3.1252,4.38141 7.24902,10.644355 7.82991,17.809834 C 104.86,48.161402 108.5,59.359401 108.5,67.760463 c 0,13.958294 1.15821,19.800663 -2.84759,30.592823 -0.77122,-13.41575 -10.316148,-1.405183 -15.948772,8.322464 -3.24157,5.59825 -5.522391,11.22399 -7.516173,11.57759 3.509958,-11.63301 -11.965372,-5.56293 -17.077849,9.36469 z m -0.05757,-5.51039 c 2.759903,-4.89199 6.065428,-8.47083 15.444787,-12.41362 9.330202,-3.92213 10.508111,-16.36978 2.521895,-11.657798 -7.064325,3.410818 -14.015471,5.274798 -17.357934,13.011258 -4.106776,-8.77561 -10.938599,-10.44626 -17.12696,-13.503327 -5.625642,-2.77908 -10.541471,2.199399 -0.126159,10.351147 8.493476,6.64758 14.980492,9.43912 16.644371,14.21234 z M 76.715505,86.807031 C 74.409984,80.443886 56.51597,81.212568 56.190736,87.97269 c -0.233206,4.847285 2.628185,7.990903 9.406158,13.24542 6.775987,-5.867608 12.955481,-9.34139 11.118611,-14.411079 z M 90.131669,74 c -1.733665,4.059503 -2.223741,5.902149 -8.085467,10.783733 -3.063737,2.551448 -5.048716,7.348853 -7.7923,15.427117 C 82.322019,96.807186 102.82057,84.758053 90.131669,74 Z M 56.459137,99.367994 C 56.229569,90.828596 54.574138,88.979533 52.901565,87.377106 48.655522,83.309139 44.070206,81.883659 42.428604,76.429029 41.664768,73.890996 39.891853,70.916172 38.482303,69.807419 35.538314,67.491677 30.023282,58.341687 30.009384,55.75 c -0.01738,-3.240932 -1.742084,-1.78397 -2.367536,2 -2.066747,12.503778 2.548185,32.013192 8.80004,37.201772 1.44798,1.201716 1.538218,0.632865 0.961759,-6.062815 L 36.767501,81.5 39.981,85.764603 c 4.454899,5.912053 8.615408,10.370052 16.478137,13.603391 z M 97.151269,91.748212 C 101.2523,85.176999 103.18595,78.321396 103.70852,68.5 104.35345,56.378919 102.58455,51.263811 101.70268,62.699717 101.07974,70.777726 99.135922,77.330739 95.977628,82 c -1.679344,2.482764 -3.452963,14.001635 -2.155375,13.998212 0.372761,-9.84e-4 1.870818,-1.913484 3.329016,-4.25 z M 61.502764,70.580465 c -4.759849,-2.724548 -9.177301,-7.313159 -5.338591,-5.925093 3.025122,1.093875 17.389968,1.021023 19.659749,-0.07879 3.760708,-1.822232 1.333779,2.249544 -3.53322,5.746135 -10.214225,6.13093 -0.48095,10.382252 5.701517,13.865928 12.122744,-4.377026 12.403885,-13.763047 2.185404,-22.429524 -3.584103,-2.696931 -4.79179,-6.229395 -6.054327,-8.885268 -1.1,-2.313961 -2.5625,-4.223509 -3.25,-4.243439 -1.620745,-0.04699 -1.537697,-1.071773 0.281803,-3.477368 0.807509,-1.067621 -0.102898,-2.686797 -0.0391,-4.094176 0.07683,-1.69478 0.270432,-1.967922 0.573325,-0.80887 0.540871,2.069709 3.032342,2.320968 4.847472,0.614784 0.7314,-0.6875 0.535443,0.0015 -0.435458,1.531208 -2.424082,4.009766 -3.25948,5.566427 0.493848,5.556055 5.284475,-0.0146 8.286359,-0.06277 8.381868,-3.498173 0.09551,-3.435401 -2.857205,-2.151805 -5.879747,-0.413312 -4.126106,2.373236 -3.711008,0.971303 0.0845,-1.397366 3.441746,-2.147896 4.968656,-2.143904 6.554121,-0.386535 2.012146,2.23031 2.642745,0.575935 2.636287,-1.989835 -0.0053,-2.092317 -4.970454,-2.5416 -8.406652,-0.871347 -1.590754,0.773228 -1.491518,0.531581 0.425699,-1.03661 1.375,-1.124684 2.864058,-2.054885 3.309017,-2.067115 C 86.47655,36.215447 83.198409,35 80.269724,35 c -6.763242,0 -9.594545,-5.119034 -4.107388,-7.42621 5.599391,-2.354367 0.09516,-4.32575 -5.796013,-2.075888 -4.158117,1.587999 -4.695846,1.584464 -9.271585,-0.06095 -8.462714,-3.043149 -22.483545,9.17434 -19.487749,16.98126 C 42.241274,44.071134 46,44.660462 46,43.106989 c 0,-2.177391 3.447406,-2.456998 6.975837,0.213641 5.476708,4.145274 7.509769,3.264906 3.274163,-1.724656 -1.679009,-1.97788 -1.675917,-2.003966 0.07621,-0.643043 1.57819,1.225818 1.949599,1.223477 2.734688,-0.01723 0.716207,-1.131853 0.911712,-0.999968 0.923784,0.623172 0.0084,1.132379 0.676001,2.932379 1.48351,4 C 63.302393,47.983895 63.371103,49 61.700888,49 c -0.714511,0 -1.868143,1.573629 -2.563626,3.496952 -0.695482,1.923324 -3.395546,4.645827 -5.351947,6.75 -13.357696,14.36664 -11.347727,20.045071 -0.05468,25.575699 2.886811,-1.299982 20.006451,-7.239229 7.772125,-14.242186 z M 39.451351,56.396989 C 37.99196,53.153645 36.487205,48.25 36.107452,45.5 l -0.690461,-5 -1.818761,3.41357 c -3.130892,5.876264 -1.881546,12.773262 3.47584,19.188331 l 4.42593,5.29972 0.302396,-3.053822 c 0.172733,-1.744389 -0.835359,-5.58236 -2.351045,-8.95081 z m 58.519951,0.03729 c 2.561608,-5.133742 2.554728,-8.059181 -0.02893,-12.297056 -2.354698,-3.862319 -3.485645,-3.696328 -1.970353,0.289191 2.071487,5.448424 0.674974,10.565043 -4.612716,16.900314 C 90.061688,62.881424 89,65.093899 89,66.243335 c 0,2.735323 5.967839,-3.789805 8.971302,-9.809059 z M 50.665361,58.897801 C 59.078736,53.698049 60.299431,48 53,48 50.314919,48 47.871984,47.601883 47.571257,47.115296 45.812805,44.270062 41,45.36339 41,48.608093 c 0,9.173679 4.213374,13.659222 9.665361,10.289708 z M 47.196509,43.98898 c 0.450109,3.262074 2.239245,2.940921 8.19307,3.052632 C 51.48959,42.493797 46.7464,40.726906 47.196509,43.98898 Z M 32.192705,31.33319 c -0.776875,-2.826931 -0.526256,-10.015696 6.908117,-4.073659 2.710544,2.166444 3.553181,1.228047 7.580712,-1.846237 6.064604,-4.629215 11.807815,-7.779043 17.472927,-4.370787 -2.273376,-6.758518 -12.078234,-3.522961 -16.670439,0.377349 -5.94253,5.047187 -11.726454,-8.060089 -18.192702,-3.050469 -3.810193,2.951885 -1.031323,10.162197 2.901385,12.963803 z M 94.402429,17.810835 c -4.74248,1.414518 -8.046295,5.029814 -10.544148,3.716064 -3.799525,-1.998368 -12.481213,-7.445416 -16.238083,-0.114829 7.27251,-3.431119 11.731559,-0.439757 15.170675,2.81406 3.629486,3.43393 4.643521,2.247898 7.407388,1.069377 4.924158,-2.09968 6.50387,3.922854 5.950007,6.820203 11.749602,-8.877129 3.482376,-15.864271 -1.745839,-14.304875 z"
       id="path1"
       sodipodi:nodetypes="ccscscscsssscsssccscscccsscsscsscssscscssssssscscsssssssssscssssssscszssscssssssssssssscsssscssscsscssssssssssssssszczcsscsscsscsscs" />
  </g>
</svg>
